<?xml version="1.0" encoding="UTF-8" standalone="no"?>
<!-- Created with Inkscape (http://www.inkscape.org/) -->

<svg
   xmlns:dc="http://purl.org/dc/elements/1.1/"
   xmlns:cc="http://creativecommons.org/ns#"
   xmlns:rdf="http://www.w3.org/1999/02/22-rdf-syntax-ns#"
   xmlns:svg="http://www.w3.org/2000/svg"
   xmlns="http://www.w3.org/2000/svg"
   xmlns:xlink="http://www.w3.org/1999/xlink"
   xmlns:sodipodi="http://sodipodi.sourceforge.net/DTD/sodipodi-0.dtd"
   xmlns:inkscape="http://www.inkscape.org/namespaces/inkscape"
   width="568.86151mm"
   height="95.341309mm"
   viewBox="0 0 568.86152 95.341309"
   version="1.1"
   id="svg8"
   inkscape:version="0.92.2 (5c3e80d, 2017-08-06)"
   sodipodi:docname="logo-white.svg"
   inkscape:export-filename="C:\Users\danny\Documents\unininja\logofirst.png"
   inkscape:export-xdpi="44.650585"
   inkscape:export-ydpi="44.650585">
  <defs
     id="defs2">
    <linearGradient
       id="linearGradient4409">
      <stop
         id="stop4411"
         offset="0"
         style="stop-color:#000000;stop-opacity:1" />
      <stop
         id="stop4413"
         offset="1"
         style="stop-color:#000000;stop-opacity:0" />
    </linearGradient>
    <linearGradient
       id="linearGradient3432">
      <stop
         id="stop3434"
         offset="0"
         style="stop-color:#050505;stop-opacity:1" />
      <stop
         id="stop3436"
         offset="1"
         style="stop-color:#0a0a0a;stop-opacity:1" />
    </linearGradient>
    <linearGradient
       id="linearGradient3406">
      <stop
         id="stop3408"
         offset="0"
         style="stop-color:#0a0a0a;stop-opacity:1" />
      <stop
         id="stop3410"
         offset="1"
         style="stop-color:#0f0f0f;stop-opacity:1" />
    </linearGradient>
    <linearGradient
       gradientUnits="userSpaceOnUse"
       xlink:href="#linearGradient3406"
       id="linearGradient3412"
       y2="1911.504"
       x2="2468.9216"
       y1="1883.0621"
       x1="2440.4797" />
    <linearGradient
       gradientUnits="userSpaceOnUse"
       xlink:href="#linearGradient3432"
       id="linearGradient3422"
       y2="7.847465"
       x2="30.205324"
       y1="10.049429"
       x1="30.205324" />
    <linearGradient
       gradientUnits="userSpaceOnUse"
       xlink:href="#linearGradient3432"
       id="linearGradient3430"
       y2="996.01678"
       x2="557.51337"
       y1="996.01678"
       x1="528.01337" />
    <linearGradient
       gradientUnits="userSpaceOnUse"
       xlink:href="#linearGradient3432"
       id="linearGradient4415"
       y2="31.590069"
       x2="34.174904"
       y1="9.1825094"
       x1="34.174904"
       gradientTransform="matrix(2.1760542,0,0,2.1760542,-86.793189,-35.285293)" />
  </defs>
  <sodipodi:namedview
     id="base"
     pagecolor="#ffffff"
     bordercolor="#666666"
     borderopacity="1.0"
     inkscape:pageopacity="0"
     inkscape:pageshadow="2"
     inkscape:zoom="0.35355339"
     inkscape:cx="1145.1584"
     inkscape:cy="220.54358"
     inkscape:document-units="mm"
     inkscape:current-layer="layer1"
     showgrid="false"
     fit-margin-top="0"
     fit-margin-left="0"
     fit-margin-right="0"
     fit-margin-bottom="0"
     inkscape:window-width="1920"
     inkscape:window-height="986"
     inkscape:window-x="-11"
     inkscape:window-y="-11"
     inkscape:window-maximized="1" />
  <metadata
     id="metadata5">
    <rdf:RDF>
      <cc:Work
         rdf:about="">
        <dc:format>image/svg+xml</dc:format>
        <dc:type
           rdf:resource="http://purl.org/dc/dcmitype/StillImage" />
        <dc:title></dc:title>
      </cc:Work>
    </rdf:RDF>
  </metadata>
  <g
     inkscape:label="Ninja"
     inkscape:groupmode="layer"
     id="layer1"
     transform="translate(120.10594,23.554667)"
     style="display:inline">
    <g
       id="g4694"
       transform="translate(-9.6435747,7.7885844)"
       style="fill:#ffffff">
      <path
         inkscape:connector-curvature="0"
         id="path887"
         d="m -50.221088,-24.743186 c -0.936046,6e-6 -1.872144,0.08342 -2.589506,0.25063 l -56.575876,12.492262 c -1.43452,0.334375 -1.43452,0.872784 0,1.207161 l 26.847973,6.5877125 v 9.7699459 c 0.06219,0.00701 -0.06213,-0.0072 0,0 -1.243643,2.4212606 -2.024209,4.9977856 -2.695443,7.6357006 h 70.016398 C -15.931191,10.384083 -16.98123,7.6640805 -18.344999,5.0989116 V -4.096391 l 27.289289,-6.69675 c 1.43473,-0.334425 1.43473,-0.872736 0,-1.207161 l -56.575872,-12.492254 c -0.717259,-0.167185 -1.653463,-0.250635 -2.589506,-0.25063 z m -33.633606,60.243868 c 5.455909,13.806635 18.788071,22.882993 33.633606,22.897309 14.854399,-0.0044 28.198721,-9.082438 33.657891,-22.897309 z"
         style="opacity:1;fill:#ffffff;fill-opacity:1;fill-rule:evenodd;stroke:#000000;stroke-width:0;stroke-miterlimit:4;stroke-dasharray:none;stroke-opacity:1"
         sodipodi:nodetypes="ccccccccccccccccccc" />
      <path
         inkscape:connector-curvature="0"
         d="m -19.178299,-15.303655 -0.79431,0.695014 17.18798,9.2106101 -0.1105,15.214151 c -0.0202,2.7783439 -2.11199,2.3661059 -2.11199,4.9488189 v 15.405149 c 0,4.38122 6.18279,4.38122 6.18279,0 V 14.764939 c 0,-2.38309 -2.07327005,-2.320673 -2.06901005,-4.9488189 l 0.0255,-15.710235 z"
         style="display:inline;fill:#ffffff;fill-opacity:1;fill-rule:evenodd;stroke:none;stroke-width:2.17605424px;stroke-linecap:butt;stroke-linejoin:miter;stroke-opacity:1"
         id="path4407" />
      <path
         inkscape:connector-curvature="0"
         id="path4668"
         d="m -61.825033,19.852541 a 4.1577381,4.1577381 0 0 0 -4.157369,4.157885 4.1577381,4.1577381 0 0 0 4.157369,4.157887 4.1577381,4.1577381 0 0 0 4.157887,-4.157887 4.1577381,4.1577381 0 0 0 -4.157887,-4.157885 z m 22.716445,0 a 4.1577381,4.1577381 0 0 0 -4.157369,4.157885 4.1577381,4.1577381 0 0 0 4.157369,4.157371 4.1577381,4.1577381 0 0 0 4.157884,-4.157371 4.1577381,4.1577381 0 0 0 -4.157884,-4.157885 z"
         style="display:inline;fill:#ffffff;fill-rule:evenodd;stroke-width:0.26458332" />
    </g>
  </g>
  <g
     inkscape:groupmode="layer"
     id="layer6"
     inkscape:label="Text"
     style="display:inline"
     transform="translate(-6.1638138,-48.718212)">
    <text
       transform="translate(126.26975,72.27288)"
       xml:space="preserve"
       style="font-style:normal;font-variant:normal;font-weight:normal;font-stretch:normal;font-size:92.04029846px;line-height:1.25;font-family:Oswald;-inkscape-font-specification:Oswald;letter-spacing:0px;word-spacing:0px;display:inline;fill:#ffffff;fill-opacity:1;stroke:none;stroke-width:2.30100751;"
       x="23.861614"
       y="53.010418"
       id="text817"><tspan
         sodipodi:role="line"
         id="tspan815"
         x="23.861614"
         y="53.010418"
         style="font-style:normal;font-variant:normal;font-weight:bold;font-stretch:normal;font-family:Montserrat;-inkscape-font-specification:'Montserrat Bold';fill:#ffffff;stroke-width:2.30100751;">uni <tspan
   style="font-style:normal;font-variant:normal;font-weight:900;font-stretch:normal;font-family:Montserrat;-inkscape-font-specification:'Montserrat Heavy';fill:#ffffff;stroke-width:2.30100751;"
   id="tspan819">ninja</tspan></tspan></text>
  </g>
</svg>
